<svg width="21" height="20" viewBox="0 0 21 20" fill="none" xmlns="http://www.w3.org/2000/svg">
<path id="Vector" d="M10.4995 6.67143C8.65666 6.67143 7.17094 8.17143 7.17094 10C7.17094 11.8286 8.67094 13.3286 10.4995 13.3286C12.3281 13.3286 13.8281 11.8286 13.8281 10C13.8281 8.17143 12.3281 6.67143 10.4995 6.67143ZM20.4995 10C20.4995 8.61429 20.4995 7.25714 20.4281 5.87143C20.3567 4.27143 19.9852 2.84286 18.8138 1.68571C17.6424 0.514286 16.2281 0.142857 14.6281 0.0714285C13.2424 -6.9184e-08 11.8852 0 10.4995 0C9.1138 0 7.75666 -6.9184e-08 6.37094 0.0714285C4.77094 0.142857 3.34237 0.514286 2.18523 1.68571C1.0138 2.85714 0.642369 4.27143 0.57094 5.87143C0.499512 7.25714 0.499512 8.61429 0.499512 10C0.499512 11.3857 0.499512 12.7429 0.57094 14.1286C0.642369 15.7286 1.0138 17.1571 2.18523 18.3143C3.35666 19.4857 4.77094 19.8571 6.37094 19.9286C7.75666 20 9.1138 20 10.4995 20C11.8852 20 13.2424 20 14.6281 19.9286C16.2281 19.8571 17.6567 19.4857 18.8138 18.3143C19.9852 17.1429 20.3567 15.7286 20.4281 14.1286C20.5138 12.7571 20.4995 11.3857 20.4995 10ZM10.4995 15.1286C7.65666 15.1286 5.37094 12.8429 5.37094 10C5.37094 7.15714 7.65666 4.87143 10.4995 4.87143C13.3424 4.87143 15.6281 7.15714 15.6281 10C15.6281 12.8429 13.3424 15.1286 10.4995 15.1286ZM15.8424 5.85714C15.1852 5.85714 14.6424 5.32857 14.6424 4.65714C14.6424 3.98571 15.1709 3.45714 15.8424 3.45714C16.5138 3.45714 17.0424 3.98571 17.0424 4.65714C17.046 4.81362 17.0174 4.96918 16.9584 5.11416C16.8995 5.25915 16.8113 5.39048 16.6995 5.5C16.59 5.61182 16.4587 5.69995 16.3137 5.75893C16.1687 5.81791 16.0131 5.84647 15.8567 5.84286L15.8424 5.85714Z" fill="#F8F8F8"/>
</svg>
