<svg width="21" height="20" viewBox="0 0 21 20" fill="none" xmlns="http://www.w3.org/2000/svg">
<path id="Vector" fill-rule="evenodd" clip-rule="evenodd" d="M3.35763 0C2.59987 0 1.87314 0.30102 1.33733 0.836838C0.801508 1.37266 0.500488 2.09938 0.500488 2.85714V17.1429C0.500488 17.9006 0.801508 18.6273 1.33733 19.1632C1.87314 19.699 2.59987 20 3.35763 20H17.6433C18.4011 20 19.1278 19.699 19.6637 19.1632C20.1995 18.6273 20.5005 17.9006 20.5005 17.1429V2.85714C20.5005 2.09938 20.1995 1.37266 19.6637 0.836838C19.1278 0.30102 18.4011 0 17.6433 0H3.35763ZM4.93192 6.13857C5.38468 6.13857 5.8189 5.95871 6.13905 5.63856C6.4592 5.31841 6.63906 4.88419 6.63906 4.43143C6.63906 3.97867 6.4592 3.54445 6.13905 3.2243C5.8189 2.90415 5.38468 2.72429 4.93192 2.72429C4.47915 2.72429 4.04494 2.90415 3.72478 3.2243C3.40463 3.54445 3.22477 3.97867 3.22477 4.43143C3.22477 4.88419 3.40463 5.31841 3.72478 5.63856C4.04494 5.95871 4.47915 6.13857 4.93192 6.13857ZM6.36049 16.8757V7.47714H3.50335V16.8757H6.36049ZM8.25763 7.47714H11.1148V8.73571C11.5362 8.07571 12.4619 7.18714 14.1833 7.18714C16.2376 7.18714 17.3533 8.54857 17.3533 11.1386C17.3533 11.2629 17.3648 11.83 17.3648 11.83V16.8743H14.5076V11.8314C14.5076 11.1386 14.3619 9.77714 12.8219 9.77714C11.2805 9.77714 11.1505 11.4886 11.1148 12.6086V16.8743H8.25763V7.47714Z" fill="#F8F8F8"/>
</svg>
